  0
SECTION
  2
HEADER
  9
$ACADVER
  1
AC1009
  0
ENDSEC
  0
SECTION
  2
ENTITIES
  0
POLYLINE
  8
PEC
 66
1
 39
0
 10
0.000000
 20
0.000000
 30
0.000000
 70
4
 75
5
  0
VERTEX
  8
PEC
 39
0
 10
22.007972
 20
19.551565
 30
0.000000
 70
16
 42
0
  0
VERTEX
  8
PEC
 39
0
 10
-1.492028
 20
0.200000
 30
0.000000
 70
8
 42
0
  0
VERTEX
  8
PEC
 39
0
 10
-0.118669
 20
0.261422
 30
0.000000
 70
8
 42
0
  0
VERTEX
  8
PEC
 39
0
 10
1.592354
 20
0.364971
 30
0.000000
 70
8
 42
0
  0
VERTEX
  8
PEC
 39
0
 10
3.300415
 20
0.509056
 30
0.000000
 70
8
 42
0
  0
VERTEX
  8
PEC
 39
0
 10
5.002730
 20
0.709479
 30
0.000000
 70
8
 42
0
  0
VERTEX
  8
PEC
 39
0
 10
6.694140
 20
0.986769
 30
0.000000
 70
8
 42
0
  0
VERTEX
  8
PEC
 39
0
 10
8.365248
 20
1.367016
 30
0.000000
 70
8
 42
0
  0
VERTEX
  8
PEC
 39
0
 10
10.000103
 20
1.880491
 30
0.000000
 70
8
 42
0
  0
VERTEX
  8
PEC
 39
0
 10
11.574465
 20
2.556338
 30
0.000000
 70
8
 42
0
  0
VERTEX
  8
PEC
 39
0
 10
13.057570
 20
3.413640
 30
0.000000
 70
8
 42
0
  0
VERTEX
  8
PEC
 39
0
 10
14.419885
 20
4.452169
 30
0.000000
 70
8
 42
0
  0
VERTEX
  8
PEC
 39
0
 10
15.643124
 20
5.651607
 30
0.000000
 70
8
 42
0
  0
VERTEX
  8
PEC
 39
0
 10
16.725542
 20
6.979830
 30
0.000000
 70
8
 42
0
  0
VERTEX
  8
PEC
 39
0
 10
17.678433
 20
8.404130
 30
0.000000
 70
8
 42
0
  0
VERTEX
  8
PEC
 39
0
 10
18.517649
 20
9.898425
 30
0.000000
 70
8
 42
0
  0
VERTEX
  8
PEC
 39
0
 10
19.260858
 20
11.442863
 30
0.000000
 70
8
 42
0
  0
VERTEX
  8
PEC
 39
0
 10
19.924605
 20
13.023158
 30
0.000000
 70
8
 42
0
  0
VERTEX
  8
PEC
 39
0
 10
20.520977
 20
14.630144
 30
0.000000
 70
8
 42
0
  0
VERTEX
  8
PEC
 39
0
 10
21.061641
 20
16.256755
 30
0.000000
 70
8
 42
0
  0
VERTEX
  8
PEC
 39
0
 10
21.554992
 20
17.898354
 30
0.000000
 70
8
 42
0
  0
VERTEX
  8
PEC
 39
0
 10
22.007972
 20
19.551565
 30
0.000000
 70
8
 42
0
  0
VERTEX
  8
PEC
 39
0
 10
21.955288
 20
19.350747
 30
0.000000
 70
16
 42
0
  0
VERTEX
  8
PEC
 39
0
 10
21.544483
 20
17.808526
 30
0.000000
 70
16
 42
0
  0
VERTEX
  8
PEC
 39
0
 10
20.688965
 20
14.947671
 30
0.000000
 70
16
 42
0
  0
VERTEX
  8
PEC
 39
0
 10
19.685122
 20
12.355568
 30
0.000000
 70
16
 42
0
  0
VERTEX
  8
PEC
 39
0
 10
18.520254
 20
9.835254
 30
0.000000
 70
16
 42
0
  0
VERTEX
  8
PEC
 39
0
 10
17.524891
 20
7.995957
 30
0.000000
 70
16
 42
0
  0
VERTEX
  8
PEC
 39
0
 10
15.829319
 20
5.790049
 30
0.000000
 70
16
 42
0
  0
VERTEX
  8
PEC
 39
0
 10
14.347132
 20
4.318921
 30
0.000000
 70
16
 42
0
  0
VERTEX
  8
PEC
 39
0
 10
12.655825
 20
3.092635
 30
0.000000
 70
16
 42
0
  0
VERTEX
  8
PEC
 39
0
 10
10.795567
 20
2.144624
 30
0.000000
 70
16
 42
0
  0
VERTEX
  8
PEC
 39
0
 10
8.496835
 20
1.343249
 30
0.000000
 70
16
 42
0
  0
VERTEX
  8
PEC
 39
0
 10
5.772770
 20
0.775912
 30
0.000000
 70
16
 42
0
  0
VERTEX
  8
PEC
 39
0
 10
3.012591
 20
0.462343
 30
0.000000
 70
16
 42
0
  0
VERTEX
  8
PEC
 39
0
 10
0.934634
 20
0.316256
 30
0.000000
 70
16
 42
0
  0
VERTEX
  8
PEC
 39
0
 10
-0.451166
 20
0.243329
 30
0.000000
 70
16
 42
0
  0
VERTEX
  8
PEC
 39
0
 10
-1.146113
 20
0.213491
 30
0.000000
 70
16
 42
0
  0
VERTEX
  8
PEC
 39
0
 10
-1.492028
 20
0.200000
 30
0.000000
 70
16
 42
0
  0
SEQEND
  0
POLYLINE
  8
PEC
 66
1
 39
0
 10
0.000000
 20
0.000000
 30
0.000000
 70
0
  0
VERTEX
  8
PEC
 39
0
 10
22.007972
 20
20.000000
 30
0.000000
 70
0
 42
0
  0
VERTEX
  8
PEC
 39
0
 10
22.007972
 20
19.551565
 30
0.000000
 70
0
 42
0
  0
SEQEND
  0
POLYLINE
  8
PEC
 66
1
 39
0
 10
0.000000
 20
0.000000
 30
0.000000
 70
0
  0
VERTEX
  8
PEC
 39
0
 10
-17.992028
 20
20.000000
 30
0.000000
 70
0
 42
0
  0
VERTEX
  8
PEC
 39
0
 10
22.007972
 20
20.000000
 30
0.000000
 70
0
 42
0
  0
SEQEND
  0
POLYLINE
  8
PEC
 66
1
 39
0
 10
0.000000
 20
0.000000
 30
0.000000
 70
0
  0
VERTEX
  8
PEC
 39
0
 10
-17.992028
 20
-20.000000
 30
0.000000
 70
0
 42
0
  0
VERTEX
  8
PEC
 39
0
 10
-17.992028
 20
20.000000
 30
0.000000
 70
0
 42
0
  0
SEQEND
  0
POLYLINE
  8
PEC
 66
1
 39
0
 10
0.000000
 20
0.000000
 30
0.000000
 70
0
  0
VERTEX
  8
PEC
 39
0
 10
22.007972
 20
-20.000000
 30
0.000000
 70
0
 42
0
  0
VERTEX
  8
PEC
 39
0
 10
-17.992028
 20
-20.000000
 30
0.000000
 70
0
 42
0
  0
SEQEND
  0
POLYLINE
  8
PEC
 66
1
 39
0
 10
0.000000
 20
0.000000
 30
0.000000
 70
0
  0
VERTEX
  8
PEC
 39
0
 10
22.007972
 20
-19.551565
 30
0.000000
 70
0
 42
0
  0
VERTEX
  8
PEC
 39
0
 10
22.007972
 20
-20.000000
 30
0.000000
 70
0
 42
0
  0
SEQEND
  0
POLYLINE
  8
PEC
 66
1
 39
0
 10
0.000000
 20
0.000000
 30
0.000000
 70
4
 75
5
  0
VERTEX
  8
PEC
 39
0
 10
-1.492028
 20
-0.200000
 30
0.000000
 70
16
 42
0
  0
VERTEX
  8
PEC
 39
0
 10
22.007972
 20
-19.551565
 30
0.000000
 70
8
 42
0
  0
VERTEX
  8
PEC
 39
0
 10
21.647676
 20
-18.224897
 30
0.000000
 70
8
 42
0
  0
VERTEX
  8
PEC
 39
0
 10
21.162872
 20
-16.580750
 30
0.000000
 70
8
 42
0
  0
VERTEX
  8
PEC
 39
0
 10
20.632127
 20
-14.950871
 30
0.000000
 70
8
 42
0
  0
VERTEX
  8
PEC
 39
0
 10
20.047671
 20
-13.339505
 30
0.000000
 70
8
 42
0
  0
VERTEX
  8
PEC
 39
0
 10
19.398203
 20
-11.753276
 30
0.000000
 70
8
 42
0
  0
VERTEX
  8
PEC
 39
0
 10
18.671847
 20
-10.200820
 30
0.000000
 70
8
 42
0
  0
VERTEX
  8
PEC
 39
0
 10
17.853116
 20
-8.695170
 30
0.000000
 70
8
 42
0
  0
VERTEX
  8
PEC
 39
0
 10
16.924017
 20
-7.255194
 30
0.000000
 70
8
 42
0
  0
VERTEX
  8
PEC
 39
0
 10
15.868459
 20
-5.905458
 30
0.000000
 70
8
 42
0
  0
VERTEX
  8
PEC
 39
0
 10
14.673422
 20
-4.677856
 30
0.000000
 70
8
 42
0
  0
VERTEX
  8
PEC
 39
0
 10
13.337675
 20
-3.605358
 30
0.000000
 70
8
 42
0
  0
VERTEX
  8
PEC
 39
0
 10
11.876425
 20
-2.711371
 30
0.000000
 70
8
 42
0
  0
VERTEX
  8
PEC
 39
0
 10
10.317593
 20
-2.000563
 30
0.000000
 70
8
 42
0
  0
VERTEX
  8
PEC
 39
0
 10
8.692494
 20
-1.457173
 30
0.000000
 70
8
 42
0
  0
VERTEX
  8
PEC
 39
0
 10
7.027071
 20
-1.052921
 30
0.000000
 70
8
 42
0
  0
VERTEX
  8
PEC
 39
0
 10
5.338742
 20
-0.757604
 30
0.000000
 70
8
 42
0
  0
VERTEX
  8
PEC
 39
0
 10
3.638090
 20
-0.543640
 30
0.000000
 70
8
 42
0
  0
VERTEX
  8
PEC
 39
0
 10
1.930880
 20
-0.389882
 30
0.000000
 70
8
 42
0
  0
VERTEX
  8
PEC
 39
0
 10
0.220303
 20
-0.279289
 30
0.000000
 70
8
 42
0
  0
VERTEX
  8
PEC
 39
0
 10
-1.492028
 20
-0.200000
 30
0.000000
 70
8
 42
0
  0
VERTEX
  8
PEC
 39
0
 10
-1.146113
 20
-0.213491
 30
0.000000
 70
16
 42
0
  0
VERTEX
  8
PEC
 39
0
 10
-0.451166
 20
-0.243329
 30
0.000000
 70
16
 42
0
  0
VERTEX
  8
PEC
 39
0
 10
0.934634
 20
-0.316256
 30
0.000000
 70
16
 42
0
  0
VERTEX
  8
PEC
 39
0
 10
3.012591
 20
-0.462343
 30
0.000000
 70
16
 42
0
  0
VERTEX
  8
PEC
 39
0
 10
5.772770
 20
-0.775912
 30
0.000000
 70
16
 42
0
  0
VERTEX
  8
PEC
 39
0
 10
8.496835
 20
-1.343249
 30
0.000000
 70
16
 42
0
  0
VERTEX
  8
PEC
 39
0
 10
10.795567
 20
-2.144624
 30
0.000000
 70
16
 42
0
  0
VERTEX
  8
PEC
 39
0
 10
12.655825
 20
-3.092635
 30
0.000000
 70
16
 42
0
  0
VERTEX
  8
PEC
 39
0
 10
14.347132
 20
-4.318921
 30
0.000000
 70
16
 42
0
  0
VERTEX
  8
PEC
 39
0
 10
15.829319
 20
-5.790049
 30
0.000000
 70
16
 42
0
  0
VERTEX
  8
PEC
 39
0
 10
17.524891
 20
-7.995957
 30
0.000000
 70
16
 42
0
  0
VERTEX
  8
PEC
 39
0
 10
18.520254
 20
-9.835254
 30
0.000000
 70
16
 42
0
  0
VERTEX
  8
PEC
 39
0
 10
19.685122
 20
-12.355568
 30
0.000000
 70
16
 42
0
  0
VERTEX
  8
PEC
 39
0
 10
20.688965
 20
-14.947671
 30
0.000000
 70
16
 42
0
  0
VERTEX
  8
PEC
 39
0
 10
21.544483
 20
-17.808526
 30
0.000000
 70
16
 42
0
  0
VERTEX
  8
PEC
 39
0
 10
21.955288
 20
-19.350747
 30
0.000000
 70
16
 42
0
  0
VERTEX
  8
PEC
 39
0
 10
22.007972
 20
-19.551565
 30
0.000000
 70
16
 42
0
  0
SEQEND
  0
POLYLINE
  8
PEC
 66
1
 39
0
 10
0.000000
 20
0.000000
 30
0.000000
 70
0
  0
VERTEX
  8
PEC
 39
0
 10
-6.492028
 20
-0.200000
 30
0.000000
 70
0
 42
0
  0
VERTEX
  8
PEC
 39
0
 10
-1.492028
 20
-0.200000
 30
0.000000
 70
0
 42
0
  0
SEQEND
  0
POLYLINE
  8
PEC
 66
1
 39
0
 10
0.000000
 20
0.000000
 30
0.000000
 70
0
  0
VERTEX
  8
PEC
 39
0
 10
-6.492028
 20
0.200000
 30
0.000000
 70
0
 42
0.960861
  0
VERTEX
  8
PEC
 39
0
 10
-11.500015
 20
0.000000
 30
0.000000
 70
0
 42
0.960861
  0
VERTEX
  8
PEC
 39
0
 10
-6.492028
 20
-0.200000
 30
0.000000
 70
0
 42
0.960861
  0
SEQEND
  0
POLYLINE
  8
PEC
 66
1
 39
0
 10
0.000000
 20
0.000000
 30
0.000000
 70
0
  0
VERTEX
  8
PEC
 39
0
 10
-1.492028
 20
0.200000
 30
0.000000
 70
0
 42
0
  0
VERTEX
  8
PEC
 39
0
 10
-6.492028
 20
0.200000
 30
0.000000
 70
0
 42
0
  0
SEQEND
  0
ENDSEC
  0
EOF
